<?xml version="1.0" standalone="no"?>
<!DOCTYPE svg PUBLIC "-//W3C//DTD SVG 20010904//EN"
 "http://www.w3.org/TR/2001/REC-SVG-20010904/DTD/svg10.dtd">
<svg version="1.0" xmlns="http://www.w3.org/2000/svg"
 width="700.000000pt" height="700.000000pt" viewBox="0 0 700.000000 700.000000"
 preserveAspectRatio="xMidYMid meet">
<metadata>
Created by potrace 1.14, written by Peter Selinger 2001-2017
</metadata>
<g transform="translate(0.000000,700.000000) scale(0.100000,-0.100000)"
fill="#000000" stroke="none">
<path d="M3418 6448 c-3 -20 -10 -22 -93 -26 -49 -2 -123 -5 -162 -6 -40 0
-74 -4 -74 -8 -6 -37 -20 -68 -29 -63 -4 3 -13 -2 -20 -10 -13 -16 -12 -17 20
-19 32 -2 23 -20 -17 -34 -21 -7 -47 -20 -58 -28 -20 -15 -20 -16 -1 -29 10
-8 24 -11 30 -8 20 13 156 10 213 -4 91 -22 96 -23 137 -28 45 -6 56 -12 56
-30 0 -7 13 -16 29 -20 16 -3 46 -21 67 -39 36 -31 79 -58 97 -62 4 -1 10 -3
15 -4 4 -1 10 -2 14 -1 4 0 7 -17 5 -39 -2 -39 -3 -40 -39 -40 -33 0 -40 -4
-56 -37 -11 -21 -18 -49 -17 -63 2 -27 -10 -44 -40 -54 -11 -4 -40 -24 -65
-46 -41 -37 -44 -41 -27 -54 23 -18 22 -22 -12 -36 -16 -6 -32 -21 -35 -33 -5
-21 -5 -21 -27 -1 -14 12 -23 15 -26 8 -14 -39 -32 -49 -92 -49 -34 0 -61 2
-61 6 0 12 25 25 48 27 12 0 29 8 37 16 9 8 23 12 31 9 12 -4 15 0 14 18 -4
40 -1 44 32 58 40 18 108 80 160 144 45 57 47 67 13 67 -22 0 -24 2 -14 18 8
13 20 17 38 14 14 -3 23 -1 19 3 -4 5 -3 14 3 21 7 9 7 19 -1 34 -9 17 -14 19
-26 9 -8 -7 -39 -13 -69 -15 -47 -2 -55 1 -61 19 -15 48 -110 112 -174 116
-128 10 -281 4 -305 -11 -5 -3 -40 -15 -77 -26 -70 -22 -109 -40 -193 -87 -27
-15 -59 -33 -69 -39 -35 -20 -47 -30 -130 -112 -90 -90 -200 -244 -201 -283 0
-14 7 -52 17 -84 18 -60 29 -103 30 -124 4 -45 74 -6 186 103 42 42 81 76 87
77 5 1 18 10 28 19 11 9 41 22 68 29 49 13 62 27 55 64 -2 11 -7 40 -10 65
l-7 45 20 -22 c25 -30 28 -29 46 10 15 31 15 31 9 -33 -7 -76 -7 -100 0 -107
3 -3 28 -7 55 -8 29 -1 56 -9 65 -18 13 -13 37 -15 127 -13 60 1 112 -2 115
-6 3 -4 -1 -8 -8 -9 -7 0 -22 -2 -33 -5 -11 -2 -42 -6 -70 -8 -27 -3 -50 -6
-50 -6 0 -4 -45 -10 -87 -12 -27 -2 -48 -5 -48 -8 0 -3 -17 -6 -37 -7 -25 -1
-43 -10 -58 -27 -12 -13 -33 -28 -48 -31 -25 -7 -35 -30 -28 -68 2 -12 -21
-32 -57 -51 -18 -9 -32 -23 -32 -31 0 -9 -10 -15 -25 -15 -16 0 -25 -6 -25
-15 0 -9 -16 -23 -35 -32 -22 -10 -35 -24 -35 -35 0 -25 -25 -72 -72 -135 -21
-29 -43 -64 -48 -78 -5 -14 -14 -25 -20 -25 -6 0 -8 5 -5 10 12 20 -10 9 -40
-18 -16 -15 -68 -56 -114 -91 -101 -77 -136 -113 -163 -166 -23 -43 -34 -150
-18 -160 6 -4 8 -11 4 -16 -4 -7 7 -9 30 -5 31 5 36 3 36 -14 0 -13 7 -20 20
-21 11 -1 26 -2 33 -3 16 -2 37 19 37 37 0 9 4 17 9 19 6 2 12 17 15 33 2 17
5 30 6 30 1 0 3 14 4 30 2 42 11 52 43 48 24 -4 28 -9 30 -41 1 -23 10 -43 22
-53 20 -16 24 -33 22 -83 -1 -20 -5 -27 -16 -23 -19 8 -31 -13 -14 -24 8 -5
37 -8 66 -6 56 4 63 -2 63 -49 0 -27 -12 -31 -30 -10 -8 11 -28 14 -73 11 -34
-2 -72 -4 -85 -4 -21 -1 -22 -3 -8 -16 19 -19 85 -32 151 -29 28 1 61 2 75 3
21 1 26 7 28 29 5 65 25 120 47 128 11 4 12 10 6 18 -6 7 -6 18 -1 26 5 8 4
22 -1 33 -10 17 -8 110 4 205 10 74 15 82 51 82 36 0 54 15 61 49 6 32 13 39
44 46 25 5 31 13 36 45 10 57 75 119 161 155 116 49 122 59 49 86 -90 34 -182
15 -207 -42 -17 -37 -28 -37 -28 1 0 17 5 30 11 30 5 0 7 5 4 10 -8 13 23 63
34 56 8 -5 33 21 50 53 9 16 16 18 38 12 16 -4 39 -5 53 -2 63 15 215 -2 239
-27 9 -8 16 -24 16 -36 1 -35 15 -66 30 -66 10 0 9 -9 -5 -38 -10 -21 -18 -47
-17 -57 2 -20 -19 -27 -38 -14 -6 4 -21 2 -33 -5 -20 -11 -24 -21 -25 -69 -2
-63 5 -71 52 -57 23 6 31 5 31 -4 0 -15 -25 -51 -37 -51 -31 -2 -63 -18 -68
-36 -19 -60 -12 -158 11 -165 8 -2 22 -7 32 -11 26 -10 46 -9 54 2 5 6 8 5 8
-3 0 -9 5 -10 19 -3 10 6 21 8 23 5 3 -2 16 -7 29 -9 13 -3 30 -12 36 -22 11
-14 6 -21 -37 -50 -27 -18 -52 -33 -55 -33 -4 0 -33 -20 -64 -45 -69 -53 -148
-137 -169 -182 -12 -25 -19 -30 -32 -23 -24 13 -38 0 -69 -64 -23 -46 -26 -58
-15 -64 25 -14 24 -49 -2 -83 -13 -18 -24 -29 -24 -25 0 5 -6 4 -12 -2 -12 -9
-37 -16 -102 -28 -16 -3 -39 -10 -50 -17 -12 -6 -38 -12 -59 -13 -22 0 -43 -7
-48 -15 -5 -8 -9 -9 -9 -4 -1 6 -5 0 -11 -13 -8 -20 -15 -23 -51 -20 -24 2
-47 9 -53 16 -15 18 -51 22 -70 8 -24 -18 -33 -89 -20 -159 6 -28 4 -42 -9
-56 -35 -39 8 -109 72 -118 35 -5 42 -9 42 -29 0 -21 4 -22 62 -21 50 1 66 6
85 25 13 13 28 20 34 16 9 -5 10 4 5 31 -6 28 -4 35 5 29 7 -4 17 -1 23 7 6 8
26 24 43 37 32 22 32 22 43 3 13 -25 13 -87 0 -111 -6 -10 -11 -30 -12 -44 -2
-19 -8 -26 -24 -26 -37 0 -144 -52 -144 -70 0 -9 -3 -20 -7 -24 -5 -4 -8 -11
-8 -14 0 -20 -62 -101 -78 -102 -10 0 -36 -9 -58 -20 -24 -13 -64 -22 -102
-23 -74 -4 -157 -38 -157 -66 0 -18 -33 -64 -45 -61 -3 1 -21 -8 -40 -19 -25
-14 -35 -28 -35 -44 0 -20 -5 -24 -26 -23 -37 1 -62 -37 -69 -106 -4 -50 -2
-60 17 -78 12 -11 25 -20 29 -20 4 0 9 -9 12 -20 3 -13 11 -18 26 -15 20 4 37
-8 63 -43 7 -9 35 -28 61 -42 76 -39 104 -74 99 -121 -1 -3 11 -6 25 -5 22 1
28 -5 35 -31 5 -18 15 -33 23 -33 8 0 21 -12 29 -27 20 -39 64 -83 81 -83 8 0
15 -4 15 -10 0 -5 11 -12 25 -16 14 -3 25 -10 25 -15 0 -5 3 -8 8 -7 11 3 81
-30 95 -44 7 -7 12 -20 12 -28 -2 -21 26 -72 48 -88 30 -23 67 -66 67 -79 0
-7 7 -13 15 -13 8 0 16 -4 16 -10 1 -5 2 -13 3 -18 0 -4 32 -39 69 -77 38 -39
91 -104 119 -145 34 -52 58 -77 75 -80 13 -3 30 -16 38 -30 13 -25 55 -125 60
-145 11 -41 19 -55 31 -55 15 0 15 -1 19 -110 3 -107 3 -108 25 -115 26 -8 25
-18 -2 -30 -29 -13 -26 -40 13 -121 16 -33 29 -70 29 -82 0 -29 37 -66 98 -97
37 -19 57 -23 69 -17 17 9 62 8 88 -2 8 -3 11 -19 8 -46 -4 -36 -1 -42 17 -47
12 -3 20 -13 19 -22 -1 -9 1 -27 4 -41 3 -14 8 -56 11 -95 3 -38 7 -84 10
-101 4 -26 1 -33 -14 -37 -16 -4 -19 -13 -16 -50 1 -25 0 -50 -3 -56 -7 -10
-83 -38 -121 -44 -26 -4 -37 -21 -21 -32 6 -3 25 -8 43 -10 49 -5 100 -15 111
-22 6 -4 8 3 4 16 -5 19 -2 21 16 15 28 -8 25 -8 75 1 24 4 42 13 42 21 0 7 7
20 16 28 14 15 14 17 0 22 -27 11 -7 24 32 20 42 -3 92 11 92 26 0 6 -15 8
-35 6 -24 -3 -35 0 -35 9 0 7 3 13 8 13 4 0 15 14 25 31 10 18 20 29 23 26 3
-2 27 1 53 8 27 7 65 11 85 10 20 -1 39 2 42 7 11 18 14 58 4 58 -6 0 -8 5 -5
10 3 6 -1 10 -9 10 -23 0 -19 17 5 23 24 6 74 -36 64 -53 -3 -6 1 -10 10 -10
8 0 18 7 21 15 4 8 13 15 22 15 12 0 10 6 -8 25 -13 14 -25 32 -26 40 -3 19
24 35 56 35 5 0 9 3 9 7 -7 44 22 61 76 43 31 -10 38 -9 70 15 26 20 35 35 35
56 0 16 5 29 12 29 6 0 8 3 5 7 -4 3 0 14 9 24 14 15 13 20 -15 52 -33 37 -40
67 -16 67 8 0 31 17 51 37 29 28 38 46 39 75 1 20 10 49 19 64 19 28 86 96 86
87 0 -3 7 0 15 7 20 17 19 30 -3 30 -19 0 -42 18 -42 33 0 4 5 5 11 1 6 -3 15
-1 19 5 10 18 0 62 -16 68 -8 3 -14 11 -14 18 0 24 100 5 130 -25 6 -6 45 -29
85 -49 17 -8 47 -16 69 -17 28 -1 44 -8 60 -28 12 -16 33 -27 50 -28 19 -2 46
-18 76 -48 26 -25 65 -54 86 -65 21 -11 48 -28 58 -37 18 -16 58 -27 43 -12
-8 9 11 44 23 44 6 0 10 -6 10 -14 0 -8 7 -17 15 -20 12 -4 13 -10 6 -24 -5
-10 -7 -22 -3 -28 12 -15 32 -15 38 1 9 23 44 19 44 -5 0 -39 30 -71 64 -69
61 4 86 -1 103 -21 22 -25 24 -25 53 0 l24 21 12 -23 c11 -20 10 -24 -7 -30
-16 -6 -18 -11 -9 -28 21 -39 93 -39 83 -1 -3 12 -1 21 4 21 6 0 9 -12 7 -28
-4 -30 23 -123 39 -134 6 -3 15 -5 21 -3 57 17 65 15 68 -12 3 -24 8 -28 38
-29 45 -1 67 10 112 59 40 44 40 59 0 57 -58 -4 -72 0 -72 19 0 21 36 33 82
27 16 -2 29 2 32 10 4 10 -3 14 -24 14 -21 0 -30 5 -30 16 0 12 -5 14 -17 8
-10 -4 -35 -9 -55 -12 -33 -3 -38 -1 -38 16 0 11 7 23 16 26 13 5 14 9 5 20
-10 12 -16 12 -38 1 -14 -8 -29 -19 -33 -25 -4 -6 -14 -8 -23 -4 -9 3 -14 10
-11 15 3 5 1 9 -4 9 -9 0 -12 14 -14 67 -1 18 -5 33 -9 33 -4 0 -12 14 -18 30
-5 17 -17 30 -26 30 -9 0 -14 -3 -11 -8 2 -4 -2 -16 -10 -27 -18 -25 -18 -4 1
42 8 19 15 44 15 54 0 19 -3 20 -50 23 -21 1 -24 6 -25 36 -1 19 4 47 11 62
12 23 11 27 -4 33 -9 3 -18 1 -20 -4 -2 -6 -16 -11 -31 -11 -20 0 -31 7 -40
26 -6 14 -8 30 -5 36 5 7 -2 9 -20 4 -29 -7 -33 3 -13 35 10 17 9 22 -13 39
-14 11 -34 20 -46 20 -11 0 -24 3 -28 8 -8 7 -14 9 -47 11 -18 1 -20 3 -8 17
10 13 10 17 0 24 -8 4 -21 7 -30 5 -17 -2 -31 22 -24 43 3 6 16 12 28 12 31 0
30 38 -2 53 -24 11 -29 22 -13 32 6 4 5 15 -2 30 -6 13 -14 22 -18 20 -12 -7
-18 53 -6 65 6 6 6 10 0 10 -5 0 -9 31 -9 71 l1 71 -59 61 -58 61 -29 -18 -30
-17 9 24 c6 16 6 28 -2 36 -6 6 -8 11 -5 11 4 0 1 12 -7 26 -7 15 -12 35 -10
45 2 12 -2 19 -11 19 -8 0 -14 4 -14 10 0 5 -3 9 -7 9 -34 -6 -50 4 -64 37
-17 44 -52 72 -141 112 -37 17 -78 41 -92 55 l-24 24 -53 -34 c-55 -34 -83
-64 -112 -118 -9 -16 -16 -25 -17 -19 0 17 -71 43 -124 45 -25 2 -46 5 -46 8
0 3 14 21 30 40 36 41 37 44 4 70 -30 23 -29 19 -11 54 14 26 13 29 -18 62
-17 19 -36 35 -42 35 -11 0 -23 32 -23 63 0 10 10 31 21 47 15 19 20 38 17 59
-4 28 -2 31 29 37 23 4 33 12 33 24 0 31 11 49 25 43 9 -3 22 7 32 24 10 17
23 28 29 26 21 -7 34 77 13 85 -4 2 -4 11 1 20 5 9 12 38 15 65 5 34 13 52 29
62 14 10 23 24 22 38 -1 12 2 28 7 35 5 6 6 12 1 12 -4 0 5 13 20 29 21 22 26
36 23 60 -6 36 24 81 54 81 15 0 19 7 19 35 0 23 4 33 13 30 15 -6 47 35 68
89 11 28 27 46 50 58 29 15 32 23 7 20 -3 -1 -12 5 -18 13 -10 12 -9 15 3 15
27 0 47 28 38 53 -4 12 -6 36 -5 52 6 56 5 136 -3 148 -4 6 -6 26 -4 43 3 34
-13 52 -50 57 -17 3 -25 11 -27 30 -3 21 -9 27 -28 27 -26 0 -85 26 -95 42 -4
6 -15 6 -28 -2 -20 -10 -23 -9 -28 9 -3 14 -13 21 -29 21 -12 0 -25 4 -28 8
-8 13 -157 20 -201 10 -58 -14 -111 -57 -101 -83 3 -10 -1 -15 -12 -16 -9 0
-30 -2 -47 -3 -16 -2 -39 0 -50 4 -30 11 -75 -8 -75 -31 0 -11 6 -22 13 -24 9
-4 11 -24 7 -73 -5 -61 -7 -67 -29 -70 -35 -5 -44 10 -46 79 -1 52 -5 65 -23
77 -21 14 -21 15 -5 42 14 24 42 39 87 44 5 1 11 6 13 12 4 13 -24 27 -38 18
-6 -3 -8 6 -5 23 2 15 5 31 5 36 1 4 8 7 17 7 19 0 46 25 43 42 -6 46 2 68 26
74 16 4 25 13 25 25 0 16 -5 18 -25 13 -19 -5 -25 -2 -25 11 0 9 8 19 18 21
14 4 17 17 18 77 1 40 4 83 8 97 11 43 15 183 5 201 -5 10 -17 20 -28 24 -21
6 -36 46 -21 55 8 5 16 33 19 63 1 5 5 6 10 2 17 -10 60 39 66 75 7 42 3 38
44 45 44 8 82 28 123 65 28 26 33 38 34 78 1 26 2 50 3 54 0 3 14 5 31 4 22
-2 32 3 37 18 12 35 10 119 -4 160 -15 45 -16 49 -5 42 4 -2 14 -1 22 4 11 7
7 13 -18 27 -18 10 -32 25 -32 34 0 11 -8 16 -23 15 -31 -1 -107 61 -89 73 10
6 7 15 -15 37 -25 25 -29 37 -28 83 0 66 17 76 38 23 15 -38 17 -39 62 -37 26
1 51 7 58 14 6 6 15 11 19 11 10 0 6 -23 -6 -32 -6 -4 -4 -13 3 -22 11 -12 17
-14 27 -5 11 9 14 8 14 -5 0 -9 -4 -16 -8 -16 -5 0 -9 -6 -9 -14 0 -9 8 -13
21 -10 26 5 58 -5 51 -15 -7 -12 29 -51 47 -51 8 0 19 -5 26 -12 9 -9 12 -9
12 0 0 10 5 10 23 1 12 -7 25 -17 29 -23 4 -6 13 -11 20 -11 7 0 18 -11 24
-23 7 -13 25 -32 42 -42 16 -10 32 -30 36 -44 3 -14 11 -26 17 -26 6 0 8 -4 5
-9 -9 -14 27 -52 52 -54 22 -1 26 -7 22 -40 -1 -12 7 -21 22 -25 13 -3 23 -4
23 -2 0 13 55 -46 101 -108 30 -40 66 -77 81 -83 30 -11 32 -10 39 27 3 15 7
30 8 33 7 11 -14 52 -23 47 -4 -3 -28 15 -51 40 -24 26 -55 50 -70 56 -21 7
-26 14 -23 31 3 14 -3 30 -16 41 -12 11 -21 25 -21 33 0 7 -4 13 -8 13 -5 0
-10 6 -11 13 -1 11 -8 65 -10 79 -1 3 -12 5 -26 3 -14 -1 -28 2 -31 6 -3 5
-13 9 -23 9 -17 0 -50 37 -52 57 0 5 -4 13 -9 18 -4 6 -11 24 -14 41 -6 29 -9
30 -51 29 -80 -2 -152 30 -181 80 -8 13 -21 19 -37 18 -37 -2 -42 26 -16 91 5
11 -31 17 -46 8 -6 -4 -11 -15 -10 -24 0 -10 -4 -17 -10 -15 -12 3 -10 86 2
98 5 5 20 11 33 14 34 7 36 13 5 25 -24 9 -30 7 -51 -17 -12 -15 -21 -30 -19
-34 5 -8 -24 -34 -47 -42 -22 -8 -33 10 -18 28 15 18 6 19 -21 5 -15 -9 -21
-7 -25 5 -4 9 -2 21 5 28 18 18 13 30 -10 24 -27 -7 -49 1 -49 19 0 13 -35 27
-56 23 -20 -3 -33 2 -70 32 -22 17 -52 36 -67 41 -27 10 -27 11 -11 30 26 27
26 47 2 43 -12 -3 -21 -6 -22 -7 -1 -2 -7 -15 -14 -31 -12 -27 -12 -27 -48
-12 -20 8 -40 12 -45 9 -5 -3 -9 0 -9 6 0 7 -6 10 -14 7 -7 -3 -18 -1 -23 4
-5 5 -20 12 -33 14 -13 2 -26 8 -29 13 -14 21 -50 32 -74 23 -13 -5 -30 -5
-37 -1 -8 5 -17 7 -21 5 -3 -3 -14 4 -24 15 -23 26 -33 25 -37 -2z m396 -2388
c-5 -33 -3 -39 16 -45 l22 -7 -21 -22 c-26 -28 -27 -52 -1 -68 26 -16 25 -41
-1 -95 -14 -30 -33 -49 -58 -61 -32 -15 -48 -18 -94 -13 -16 1 -16 119 1 130
7 4 25 6 42 5 23 -2 30 2 30 16 0 10 -6 20 -13 23 -6 2 -12 20 -11 38 1 31 4
34 27 31 24 -3 27 0 27 27 0 27 -8 36 -32 33 -3 -1 -12 5 -18 13 -10 12 -8 16
11 24 13 4 29 6 35 4 7 -2 15 1 19 6 13 22 25 -1 19 -39z m-760 -719 c9 -10
18 -28 19 -40 1 -19 30 -38 50 -33 4 1 7 -1 7 -5 0 -9 109 -8 137 1 21 7 37
-2 46 -26 5 -14 18 -18 51 -18 50 0 62 -11 57 -53 -1 -15 6 -40 15 -55 24 -35
24 -41 -3 -81 -13 -18 -20 -37 -18 -42 3 -4 -4 -6 -15 -4 -35 7 -60 -28 -54
-75 6 -39 0 -47 -31 -40 -17 4 -99 11 -123 11 -19 -1 -21 2 -12 19 10 18 9 19
-27 3 -42 -17 -73 -45 -73 -66 0 -20 -11 -28 -24 -18 -6 5 -15 10 -21 10 -5 1
-11 6 -11 11 -1 6 -2 15 -3 21 0 7 -13 0 -27 -14 -28 -28 -65 -39 -132 -41
-41 -2 -67 -19 -56 -38 8 -12 -24 -21 -43 -12 -10 4 -21 6 -25 6 -19 -4 -6 26
13 31 22 6 23 44 1 39 -7 -1 -12 2 -12 7 0 11 -48 5 -65 -9 -10 -9 -21 -8 -44
4 -16 9 -51 17 -77 18 -36 1 -43 4 -32 12 8 6 17 21 20 34 5 19 0 26 -30 40
-20 9 -45 23 -54 31 -10 8 -18 11 -18 8 0 -3 -27 9 -60 28 -58 33 -86 42 -163
52 -20 3 -39 9 -42 13 -8 13 6 40 21 40 8 0 14 4 14 9 0 5 11 8 25 6 14 -1 26
3 26 9 1 6 2 17 3 25 0 9 22 20 51 28 78 20 94 22 100 12 7 -11 52 -12 59 -1
3 5 19 7 35 6 23 -1 31 2 32 14 4 61 -2 57 87 58 l82 0 0 -34 0 -35 47 6 c50
5 74 26 66 56 -5 21 4 29 47 41 l30 8 -6 -53 c-6 -52 -6 -52 21 -52 17 0 33 9
48 28 11 16 24 29 28 29 4 0 19 4 33 10 23 8 25 12 14 35 -6 14 -15 25 -20 25
-4 0 -8 5 -8 10 0 16 26 11 44 -9z"/>
<path d="M2183 5420 c5 -20 -32 -86 -72 -128 -41 -42 -70 -152 -40 -152 15 0
69 33 69 42 0 4 9 8 20 8 17 0 19 -3 11 -19 -6 -10 -8 -21 -5 -24 13 -13 -89
-114 -143 -142 -20 -11 -45 -27 -54 -36 -9 -9 -23 -21 -31 -25 -19 -13 -70
-76 -64 -81 2 -3 21 -8 41 -13 32 -7 39 -5 58 17 34 40 89 93 147 143 29 25
60 52 70 60 9 8 32 26 49 39 29 22 38 45 17 41 -15 -3 -25 23 -16 40 5 9 11
36 15 60 4 25 9 48 11 51 2 4 -3 20 -11 36 -8 15 -22 45 -31 66 -17 39 -51 53
-41 17z"/>
<path d="M4277 5196 c-99 -36 -168 -142 -170 -264 -2 -113 18 -174 78 -240 78
-87 202 -100 301 -31 41 28 41 28 41 6 1 -12 1 -27 2 -32 1 -7 34 -11 86 -10
l85 0 0 286 0 287 -85 0 -85 0 0 -29 c0 -33 -11 -37 -31 -12 -39 47 -146 66
-222 39z m209 -167 c50 -47 57 -159 14 -219 -39 -55 -135 -63 -184 -14 -57 57
-52 193 8 244 41 34 120 28 162 -11z"/>
<path d="M4986 5195 c-97 -34 -162 -129 -173 -251 -9 -107 27 -210 92 -267 89
-78 220 -80 303 -4 12 11 22 16 23 11 1 -5 2 -20 2 -34 2 -24 4 -25 77 -25 41
-1 80 0 86 2 8 3 11 88 10 286 l-1 282 -86 3 -85 3 1 -35 2 -35 -33 29 c-56
49 -141 63 -218 35z m202 -157 c47 -39 62 -151 28 -217 -29 -54 -113 -75 -175
-41 -35 18 -64 93 -58 150 6 54 16 77 46 104 39 35 118 37 159 4z"/>
<path d="M2879 5032 c-52 -35 -71 -59 -61 -77 9 -18 -6 -65 -21 -65 -5 0 -5
-9 -2 -20 9 -27 -2 -58 -23 -64 -10 -4 -19 -18 -20 -32 -2 -28 -18 -54 -33
-54 -10 0 -45 38 -42 45 4 8 -32 68 -42 72 -21 7 -84 -154 -70 -177 3 -5 2
-11 -2 -13 -8 -5 -7 -112 1 -199 4 -37 1 -48 -10 -48 -8 0 -15 -9 -15 -20 -2
-27 -3 -33 -10 -45 -8 -13 7 -55 20 -55 5 0 16 -3 24 -6 18 -6 55 29 88 83 29
49 58 76 98 92 17 8 31 19 30 25 -3 25 2 36 15 36 8 0 16 7 20 15 3 8 14 15
25 15 17 0 32 19 36 45 0 6 6 9 13 7 7 -1 12 2 12 8 0 6 6 10 14 10 8 0 40 21
71 47 l58 46 -74 24 c-40 13 -80 32 -89 41 -42 47 -55 119 -27 150 16 17 51
121 44 129 -2 1 -14 -6 -28 -15z"/>
<path d="M1950 4450 c-9 -13 -26 -20 -46 -20 -28 0 -34 -5 -45 -37 -7 -21 -14
-45 -16 -53 -9 -41 -15 -89 -17 -120 -1 -34 0 -35 32 -32 18 1 47 9 63 17 26
14 29 14 29 0 0 -17 12 -19 57 -6 20 6 35 6 39 0 9 -15 23 -1 19 19 -2 10 -6
43 -9 73 -8 66 -10 77 -24 109 -10 25 -52 66 -52 52 0 -4 -4 -1 -8 5 -6 9 -12
7 -22 -7z"/>
<path d="M1772 4132 c-6 -15 -16 -43 -23 -62 -6 -19 -13 -42 -16 -50 -21 -55
-21 -99 -1 -137 10 -19 21 -54 23 -78 3 -24 5 -48 6 -52 1 -4 0 -10 -1 -13 -5
-13 -7 -196 -1 -205 3 -5 7 -19 8 -29 5 -28 13 -33 13 -8 0 32 1 36 9 47 5 6
7 20 6 33 -1 12 2 22 7 22 4 0 8 7 8 16 0 12 5 15 23 9 28 -10 62 -11 110 -3
22 3 40 1 44 -5 10 -16 11 -107 1 -113 -5 -3 -6 -10 -3 -15 4 -5 3 -9 -2 -10
-41 -3 -65 -10 -88 -25 -14 -9 -46 -18 -70 -19 -53 -2 -56 -4 -57 -44 -1 -40
3 -44 54 -42 99 2 126 16 232 114 22 22 56 50 74 64 17 14 32 29 32 34 0 15
-55 61 -95 79 -36 17 -68 24 -147 35 -40 6 -64 21 -89 57 -13 18 -26 35 -29
38 -13 12 -8 30 10 40 11 6 20 18 20 26 0 8 -5 12 -10 9 -6 -4 -18 -4 -27 -1
-13 6 -13 9 3 34 12 18 18 46 19 87 0 54 2 60 23 63 12 2 22 11 22 20 1 21 23
52 39 52 6 0 11 4 11 9 0 5 3 16 6 24 4 11 -2 15 -23 14 -15 0 -46 2 -68 6
-37 5 -42 3 -53 -21z"/>
<path d="M2505 2310 c-16 -11 -26 -20 -21 -20 5 0 2 -8 -6 -17 -14 -17 -28
-45 -33 -68 -2 -5 -8 -30 -15 -55 -7 -25 -14 -52 -15 -60 -1 -8 -5 -40 -9 -70
-24 -184 -56 -320 -76 -320 -12 0 -10 -57 4 -90 30 -74 36 -94 38 -127 0 -13
15 -33 34 -48 38 -29 40 -38 19 -78 -13 -25 -13 -31 -1 -43 8 -8 18 -24 22
-37 4 -12 9 -24 13 -27 28 -23 86 -115 83 -132 -1 -3 12 -10 29 -13 28 -6 79
-44 79 -59 0 -7 23 -36 61 -77 29 -32 76 -54 81 -38 2 5 13 11 26 12 29 2 28
13 -3 21 -14 4 -25 11 -25 16 0 6 -11 10 -25 10 -14 0 -26 3 -26 8 -10 57 8
86 36 59 8 -9 15 -20 15 -25 0 -5 11 -13 25 -16 14 -4 23 -10 21 -15 -3 -5 1
-14 10 -21 11 -10 18 -10 26 -2 20 20 28 13 18 -13 -5 -14 -6 -26 -2 -26 4 -1
14 -2 22 -3 17 -1 18 -36 1 -78 -8 -22 -17 -28 -42 -28 -22 0 -32 5 -36 20 -3
11 -9 20 -14 20 -5 0 -9 6 -9 14 0 15 -18 31 -26 24 -2 -3 4 -26 13 -51 13
-35 24 -49 48 -58 49 -18 69 -26 95 -37 32 -13 64 -25 70 -26 27 -5 98 -33
108 -43 13 -12 59 -27 115 -37 22 -4 31 1 44 22 21 32 34 43 45 36 4 -3 8 9 8
25 0 17 -5 31 -11 31 -6 0 -17 6 -24 14 -15 14 -2 36 21 36 6 0 16 6 22 13 8
9 6 16 -8 25 -16 10 -37 61 -44 111 -3 18 -44 51 -63 51 -7 0 -13 -7 -11 -16
2 -12 -6 -18 -24 -21 -19 -2 -28 1 -28 10 0 29 -45 67 -78 67 -18 0 -32 4 -32
9 0 5 -5 22 -12 38 -6 15 -13 35 -15 43 -6 21 -4 271 3 281 3 5 1 9 -5 9 -6 0
-6 11 -1 29 4 16 5 32 2 36 -4 3 -8 30 -9 58 -4 98 -29 201 -64 264 -26 47
-36 54 -65 43 -39 -15 -58 0 -114 90 -30 49 -58 89 -62 90 -5 0 -8 6 -8 14 0
8 -6 21 -13 28 -20 20 -112 181 -109 190 1 4 -4 8 -11 8 -8 0 -18 9 -23 20 -9
20 -9 20 -39 0z"/>
</g>
</svg>
